<svg xmlns="http://www.w3.org/2000/svg" xmlns:xlink="http://www.w3.org/1999/xlink" width="109" zoomAndPan="magnify" viewBox="0 0 375 374.999991" height="57" preserveAspectRatio="xMidYMid meet" version="1.0"><defs><clipPath id="47c1deceab"><path d="M 122.332031 122.332031 L 252.832031 122.332031 L 252.832031 252.832031 L 122.332031 252.832031 Z M 122.332031 122.332031 " clip-rule="nonzero"/></clipPath></defs><g clip-path="url(#47c1deceab)"><path fill="#ffffff" d="M 252.65625 187.496094 C 252.65625 223.398438 223.460938 252.585938 187.566406 252.585938 L 145.808594 252.585938 L 145.808594 166.265625 C 145.808594 165.921875 145.84375 165.578125 145.910156 165.242188 C 145.976562 164.902344 146.074219 164.578125 146.207031 164.257812 C 146.339844 163.941406 146.5 163.636719 146.691406 163.351562 C 146.882812 163.066406 147.101562 162.800781 147.34375 162.558594 C 147.585938 162.316406 147.851562 162.097656 148.136719 161.90625 C 148.425781 161.714844 148.726562 161.554688 149.042969 161.421875 C 149.363281 161.289062 149.691406 161.191406 150.027344 161.125 C 150.363281 161.054688 150.707031 161.023438 151.050781 161.023438 C 151.394531 161.023438 151.734375 161.058594 152.074219 161.125 C 152.410156 161.191406 152.738281 161.289062 153.054688 161.421875 C 153.375 161.554688 153.675781 161.714844 153.960938 161.90625 C 154.246094 162.097656 154.511719 162.316406 154.757812 162.558594 C 155 162.800781 155.214844 163.066406 155.40625 163.351562 C 155.597656 163.636719 155.761719 163.941406 155.890625 164.257812 C 156.023438 164.578125 156.125 164.902344 156.191406 165.242188 C 156.257812 165.578125 156.292969 165.921875 156.292969 166.265625 L 156.292969 242.113281 L 187.566406 242.113281 C 217.675781 242.113281 242.175781 217.617188 242.175781 187.503906 C 242.175781 157.386719 217.679688 132.890625 187.566406 132.890625 L 150.398438 132.890625 C 150.054688 132.890625 149.710938 132.855469 149.375 132.789062 C 149.039062 132.722656 148.710938 132.621094 148.390625 132.492188 C 148.074219 132.359375 147.769531 132.199219 147.484375 132.007812 C 147.199219 131.816406 146.933594 131.597656 146.691406 131.355469 C 146.445312 131.109375 146.230469 130.847656 146.039062 130.558594 C 145.847656 130.273438 145.6875 129.972656 145.554688 129.652344 C 145.421875 129.335938 145.324219 129.007812 145.253906 128.671875 C 145.1875 128.332031 145.15625 127.992188 145.15625 127.648438 C 145.15625 127.304688 145.1875 126.960938 145.253906 126.625 C 145.324219 126.285156 145.421875 125.960938 145.554688 125.640625 C 145.6875 125.324219 145.847656 125.019531 146.039062 124.734375 C 146.230469 124.449219 146.445312 124.183594 146.691406 123.941406 C 146.933594 123.695312 147.199219 123.480469 147.484375 123.289062 C 147.769531 123.097656 148.074219 122.9375 148.390625 122.804688 C 148.710938 122.671875 149.039062 122.574219 149.375 122.503906 C 149.710938 122.4375 150.054688 122.40625 150.398438 122.40625 L 187.566406 122.40625 C 223.46875 122.40625 252.65625 151.605469 252.65625 187.496094 Z M 224.929688 187.496094 C 224.929688 208.097656 208.171875 224.859375 187.566406 224.859375 L 179.332031 224.859375 L 179.332031 187.496094 C 179.332031 187.152344 179.296875 186.808594 179.230469 186.472656 C 179.164062 186.136719 179.066406 185.808594 178.933594 185.488281 C 178.800781 185.171875 178.640625 184.871094 178.449219 184.582031 C 178.257812 184.296875 178.039062 184.03125 177.796875 183.789062 C 177.554688 183.546875 177.289062 183.328125 177.003906 183.136719 C 176.714844 182.945312 176.414062 182.785156 176.097656 182.652344 C 175.777344 182.519531 175.449219 182.421875 175.113281 182.355469 C 174.777344 182.289062 174.433594 182.253906 174.089844 182.253906 C 173.746094 182.253906 173.40625 182.289062 173.070312 182.355469 C 172.730469 182.421875 172.402344 182.519531 172.085938 182.652344 C 171.765625 182.785156 171.464844 182.945312 171.179688 183.136719 C 170.894531 183.328125 170.628906 183.546875 170.382812 183.789062 C 170.140625 184.03125 169.925781 184.296875 169.734375 184.582031 C 169.542969 184.871094 169.378906 185.171875 169.25 185.488281 C 169.117188 185.808594 169.015625 186.136719 168.949219 186.472656 C 168.882812 186.808594 168.847656 187.152344 168.847656 187.496094 L 168.847656 235.339844 L 187.558594 235.339844 C 213.941406 235.339844 235.40625 213.878906 235.40625 187.496094 C 235.40625 161.113281 213.949219 139.648438 187.566406 139.648438 L 122.332031 139.648438 L 122.332031 247.355469 C 122.332031 247.699219 122.367188 248.042969 122.433594 248.378906 C 122.5 248.714844 122.601562 249.042969 122.730469 249.363281 C 122.863281 249.679688 123.023438 249.980469 123.214844 250.269531 C 123.40625 250.554688 123.625 250.820312 123.867188 251.0625 C 124.113281 251.304688 124.375 251.523438 124.664062 251.714844 C 124.949219 251.90625 125.25 252.066406 125.570312 252.199219 C 125.886719 252.332031 126.214844 252.429688 126.550781 252.496094 C 126.890625 252.5625 127.230469 252.597656 127.574219 252.597656 C 127.917969 252.597656 128.257812 252.5625 128.597656 252.496094 C 128.933594 252.429688 129.261719 252.332031 129.578125 252.199219 C 129.898438 252.066406 130.199219 251.90625 130.484375 251.714844 C 130.773438 251.523438 131.035156 251.304688 131.28125 251.0625 C 131.523438 250.820312 131.742188 250.554688 131.933594 250.269531 C 132.125 249.980469 132.285156 249.679688 132.417969 249.363281 C 132.546875 249.042969 132.648438 248.714844 132.714844 248.378906 C 132.78125 248.042969 132.816406 247.699219 132.816406 247.355469 L 132.816406 150.132812 L 187.566406 150.132812 C 208.171875 150.132812 224.929688 166.902344 224.929688 187.496094 Z M 224.929688 187.496094 " fill-opacity="1" fill-rule="nonzero"/></g></svg>