<svg xmlns="http://www.w3.org/2000/svg" xmlns:xlink="http://www.w3.org/1999/xlink" width="500" zoomAndPan="magnify" viewBox="0 0 375 374.999991" height="500" preserveAspectRatio="xMidYMid meet" version="1.0"><defs><clipPath id="70f46fa3ec"><path d="M 24.660156 24.660156 L 350.160156 24.660156 L 350.160156 350.160156 L 24.660156 350.160156 Z M 24.660156 24.660156 " clip-rule="nonzero"/></clipPath></defs><g clip-path="url(#70f46fa3ec)"><path fill="#ffffff" d="M 350.335938 187.496094 C 350.335938 277.214844 277.371094 350.15625 187.675781 350.15625 L 83.324219 350.15625 L 83.324219 134.441406 C 83.324219 133.582031 83.40625 132.730469 83.574219 131.886719 C 83.742188 131.042969 83.992188 130.222656 84.320312 129.429688 C 84.648438 128.636719 85.054688 127.878906 85.53125 127.164062 C 86.007812 126.449219 86.550781 125.789062 87.160156 125.179688 C 87.769531 124.574219 88.429688 124.03125 89.144531 123.550781 C 89.859375 123.074219 90.613281 122.671875 91.410156 122.339844 C 92.203125 122.011719 93.023438 121.765625 93.867188 121.597656 C 94.710938 121.429688 95.5625 121.34375 96.421875 121.34375 C 97.28125 121.34375 98.132812 121.429688 98.976562 121.597656 C 99.820312 121.765625 100.640625 122.011719 101.433594 122.339844 C 102.230469 122.671875 102.984375 123.074219 103.699219 123.550781 C 104.414062 124.03125 105.074219 124.574219 105.683594 125.179688 C 106.292969 125.789062 106.835938 126.449219 107.3125 127.164062 C 107.789062 127.878906 108.195312 128.636719 108.523438 129.429688 C 108.851562 130.222656 109.101562 131.042969 109.269531 131.886719 C 109.4375 132.730469 109.519531 133.582031 109.519531 134.441406 L 109.519531 323.992188 L 187.671875 323.992188 C 262.921875 323.992188 324.144531 262.773438 324.144531 187.515625 C 324.144531 112.257812 262.925781 51.039062 187.671875 51.039062 L 94.792969 51.039062 C 93.929688 51.039062 93.078125 50.957031 92.234375 50.789062 C 91.390625 50.621094 90.574219 50.371094 89.777344 50.042969 C 88.984375 49.714844 88.226562 49.3125 87.511719 48.832031 C 86.796875 48.355469 86.136719 47.8125 85.527344 47.203125 C 84.917969 46.59375 84.375 45.933594 83.898438 45.21875 C 83.421875 44.503906 83.015625 43.75 82.6875 42.953125 C 82.359375 42.160156 82.109375 41.339844 81.941406 40.496094 C 81.773438 39.652344 81.691406 38.800781 81.691406 37.941406 C 81.691406 37.078125 81.773438 36.226562 81.941406 35.382812 C 82.109375 34.539062 82.359375 33.722656 82.6875 32.925781 C 83.015625 32.132812 83.421875 31.375 83.898438 30.660156 C 84.375 29.945312 84.917969 29.285156 85.527344 28.675781 C 86.136719 28.066406 86.796875 27.523438 87.511719 27.046875 C 88.226562 26.570312 88.984375 26.164062 89.777344 25.835938 C 90.574219 25.507812 91.390625 25.257812 92.234375 25.089844 C 93.078125 24.921875 93.929688 24.839844 94.792969 24.839844 L 187.671875 24.839844 C 277.390625 24.839844 350.335938 97.808594 350.335938 187.496094 Z M 281.046875 187.496094 C 281.046875 238.984375 239.164062 280.867188 187.675781 280.867188 L 167.097656 280.867188 L 167.097656 187.496094 C 167.097656 186.636719 167.015625 185.785156 166.847656 184.941406 C 166.679688 184.097656 166.429688 183.277344 166.101562 182.484375 C 165.773438 181.691406 165.367188 180.933594 164.890625 180.21875 C 164.414062 179.503906 163.871094 178.84375 163.261719 178.234375 C 162.652344 177.628906 161.992188 177.085938 161.277344 176.605469 C 160.5625 176.128906 159.808594 175.726562 159.011719 175.394531 C 158.21875 175.066406 157.398438 174.816406 156.554688 174.652344 C 155.710938 174.484375 154.859375 174.398438 154 174.398438 C 153.140625 174.398438 152.289062 174.484375 151.445312 174.652344 C 150.601562 174.816406 149.78125 175.066406 148.988281 175.394531 C 148.195312 175.726562 147.4375 176.128906 146.722656 176.605469 C 146.007812 177.085938 145.347656 177.628906 144.738281 178.234375 C 144.128906 178.84375 143.585938 179.503906 143.109375 180.21875 C 142.632812 180.933594 142.230469 181.691406 141.898438 182.484375 C 141.570312 183.277344 141.320312 184.097656 141.152344 184.941406 C 140.988281 185.785156 140.902344 186.636719 140.902344 187.496094 L 140.902344 307.0625 L 187.65625 307.0625 C 253.589844 307.0625 307.226562 253.429688 307.226562 187.496094 C 307.226562 121.566406 253.609375 67.929688 187.671875 67.929688 L 24.660156 67.929688 L 24.660156 337.089844 C 24.660156 337.949219 24.742188 338.800781 24.910156 339.644531 C 25.078125 340.488281 25.328125 341.304688 25.65625 342.101562 C 25.984375 342.894531 26.386719 343.648438 26.867188 344.363281 C 27.34375 345.082031 27.886719 345.742188 28.496094 346.351562 C 29.101562 346.957031 29.765625 347.5 30.480469 347.980469 C 31.195312 348.457031 31.949219 348.859375 32.746094 349.1875 C 33.539062 349.519531 34.359375 349.765625 35.203125 349.933594 C 36.042969 350.101562 36.898438 350.1875 37.757812 350.1875 C 38.617188 350.1875 39.46875 350.101562 40.3125 349.933594 C 41.15625 349.765625 41.972656 349.519531 42.769531 349.1875 C 43.5625 348.859375 44.316406 348.457031 45.035156 347.980469 C 45.75 347.5 46.410156 346.957031 47.019531 346.351562 C 47.625 345.742188 48.167969 345.078125 48.648438 344.363281 C 49.125 343.648438 49.527344 342.894531 49.855469 342.101562 C 50.1875 341.304688 50.433594 340.488281 50.601562 339.644531 C 50.769531 338.800781 50.855469 337.949219 50.855469 337.089844 L 50.855469 94.125 L 187.671875 94.125 C 239.164062 94.125 281.046875 136.039062 281.046875 187.496094 Z M 281.046875 187.496094 " fill-opacity="1" fill-rule="nonzero"/></g></svg>